<mxfile host="app.diagrams.net" modified="2020-11-19T02:55:04.038Z" agent="5.0 (Windows NT 10.0; WOW64) AppleWebKit/537.36 (KHTML, like Gecko) Chrome/75.0.3770.100 Safari/537.36" etag="vo75TaeAOOXzQnZjoC54" version="13.8.0" type="github">
  <diagram id="iE2wbWQ0QXkjVWSv8c7P" name="Page-1">
    <mxGraphModel dx="1038" dy="548" grid="1" gridSize="10" guides="1" tooltips="1" connect="1" arrows="1" fold="1" page="1" pageScale="1" pageWidth="827" pageHeight="1169" math="0" shadow="0">
      <root>
        <mxCell id="0" />
        <mxCell id="1" parent="0" />
        <mxCell id="NpveWCGrAPYbdQZFNyhg-1" value="mq-publish" style="rounded=1;whiteSpace=wrap;html=1;" vertex="1" parent="1">
          <mxGeometry x="70" y="160" width="90" height="200" as="geometry" />
        </mxCell>
        <mxCell id="NpveWCGrAPYbdQZFNyhg-11" value="ack" style="edgeStyle=orthogonalEdgeStyle;rounded=0;orthogonalLoop=1;jettySize=auto;html=1;exitX=0;exitY=0.75;exitDx=0;exitDy=0;" edge="1" parent="1" source="NpveWCGrAPYbdQZFNyhg-2">
          <mxGeometry relative="1" as="geometry">
            <mxPoint x="164" y="327" as="targetPoint" />
            <Array as="points">
              <mxPoint x="280" y="327" />
            </Array>
          </mxGeometry>
        </mxCell>
        <mxCell id="NpveWCGrAPYbdQZFNyhg-12" value="push/pull" style="edgeStyle=orthogonalEdgeStyle;rounded=0;orthogonalLoop=1;jettySize=auto;html=1;exitX=1;exitY=0.25;exitDx=0;exitDy=0;entryX=0;entryY=0.25;entryDx=0;entryDy=0;" edge="1" parent="1" source="NpveWCGrAPYbdQZFNyhg-2" target="NpveWCGrAPYbdQZFNyhg-3">
          <mxGeometry relative="1" as="geometry">
            <Array as="points">
              <mxPoint x="440" y="210" />
            </Array>
          </mxGeometry>
        </mxCell>
        <mxCell id="NpveWCGrAPYbdQZFNyhg-20" value="persistent" style="edgeStyle=orthogonalEdgeStyle;rounded=0;orthogonalLoop=1;jettySize=auto;html=1;exitX=0.25;exitY=1;exitDx=0;exitDy=0;entryX=0.317;entryY=-0.004;entryDx=0;entryDy=0;entryPerimeter=0;" edge="1" parent="1" source="NpveWCGrAPYbdQZFNyhg-2" target="NpveWCGrAPYbdQZFNyhg-14">
          <mxGeometry x="0.227" relative="1" as="geometry">
            <mxPoint x="330" y="413" as="targetPoint" />
            <Array as="points">
              <mxPoint x="330" y="370" />
              <mxPoint x="330" y="413" />
              <mxPoint x="331" y="413" />
            </Array>
            <mxPoint as="offset" />
          </mxGeometry>
        </mxCell>
        <mxCell id="NpveWCGrAPYbdQZFNyhg-2" value="" style="rounded=1;whiteSpace=wrap;html=1;" vertex="1" parent="1">
          <mxGeometry x="280" y="160" width="160" height="210" as="geometry" />
        </mxCell>
        <mxCell id="NpveWCGrAPYbdQZFNyhg-13" value="ack" style="edgeStyle=orthogonalEdgeStyle;rounded=0;orthogonalLoop=1;jettySize=auto;html=1;exitX=0;exitY=0.75;exitDx=0;exitDy=0;entryX=1;entryY=0.706;entryDx=0;entryDy=0;entryPerimeter=0;" edge="1" parent="1" source="NpveWCGrAPYbdQZFNyhg-3" target="NpveWCGrAPYbdQZFNyhg-2">
          <mxGeometry relative="1" as="geometry" />
        </mxCell>
        <mxCell id="NpveWCGrAPYbdQZFNyhg-3" value="mq-subscribe" style="rounded=1;whiteSpace=wrap;html=1;" vertex="1" parent="1">
          <mxGeometry x="530" y="160" width="90" height="200" as="geometry" />
        </mxCell>
        <mxCell id="NpveWCGrAPYbdQZFNyhg-14" value="" style="shape=cylinder3;whiteSpace=wrap;html=1;boundedLbl=1;backgroundOutline=1;size=15;" vertex="1" parent="1">
          <mxGeometry x="280" y="420" width="160" height="50" as="geometry" />
        </mxCell>
        <mxCell id="NpveWCGrAPYbdQZFNyhg-15" value="zookeeper" style="rounded=0;whiteSpace=wrap;html=1;" vertex="1" parent="1">
          <mxGeometry x="280" y="90" width="160" height="40" as="geometry" />
        </mxCell>
        <mxCell id="NpveWCGrAPYbdQZFNyhg-18" value="rm" style="endArrow=classic;html=1;exitX=0.578;exitY=1.009;exitDx=0;exitDy=0;exitPerimeter=0;" edge="1" parent="1" source="NpveWCGrAPYbdQZFNyhg-2">
          <mxGeometry width="50" height="50" relative="1" as="geometry">
            <mxPoint x="372" y="380" as="sourcePoint" />
            <mxPoint x="372" y="420" as="targetPoint" />
          </mxGeometry>
        </mxCell>
        <mxCell id="NpveWCGrAPYbdQZFNyhg-22" value="push" style="edgeStyle=orthogonalEdgeStyle;rounded=0;orthogonalLoop=1;jettySize=auto;html=1;exitX=1;exitY=0.25;exitDx=0;exitDy=0;" edge="1" parent="1" target="NpveWCGrAPYbdQZFNyhg-2">
          <mxGeometry relative="1" as="geometry">
            <mxPoint x="160" y="212.5" as="sourcePoint" />
            <mxPoint x="270" y="220.08000000000004" as="targetPoint" />
            <Array as="points">
              <mxPoint x="160" y="210" />
            </Array>
          </mxGeometry>
        </mxCell>
        <mxCell id="NpveWCGrAPYbdQZFNyhg-24" value="broker1" style="rounded=1;whiteSpace=wrap;html=1;" vertex="1" parent="1">
          <mxGeometry x="290" y="180" width="120" height="30" as="geometry" />
        </mxCell>
        <mxCell id="NpveWCGrAPYbdQZFNyhg-25" value="broker2" style="rounded=1;whiteSpace=wrap;html=1;" vertex="1" parent="1">
          <mxGeometry x="290" y="220" width="120" height="30" as="geometry" />
        </mxCell>
        <mxCell id="NpveWCGrAPYbdQZFNyhg-26" value="broker3" style="rounded=1;whiteSpace=wrap;html=1;" vertex="1" parent="1">
          <mxGeometry x="290" y="260" width="120" height="30" as="geometry" />
        </mxCell>
        <mxCell id="NpveWCGrAPYbdQZFNyhg-27" value="brokerN" style="rounded=1;whiteSpace=wrap;html=1;" vertex="1" parent="1">
          <mxGeometry x="290" y="330" width="120" height="30" as="geometry" />
        </mxCell>
        <mxCell id="NpveWCGrAPYbdQZFNyhg-34" value="&lt;font style=&quot;font-size: 36px&quot;&gt;......&lt;/font&gt;" style="text;html=1;strokeColor=none;fillColor=none;align=center;verticalAlign=middle;whiteSpace=wrap;rounded=0;" vertex="1" parent="1">
          <mxGeometry x="310" y="290" width="80" height="20" as="geometry" />
        </mxCell>
      </root>
    </mxGraphModel>
  </diagram>
</mxfile>
